HIERARCHY
ROOT Hips
{
	OFFSET 0.000000 0.000000 0.000000
	CHANNELS 6 Xposition Yposition Zposition Xrotation Yrotation Zrotation
	JOINT LeftUpLeg_virtual
	{
		OFFSET 0.000000 0.000000 0.000000
		CHANNELS 3 Xrotation Yrotation Zrotation
		JOINT LeftUpLeg
		{
			OFFSET 10.205400 -3.823500 0.155100
			CHANNELS 3 Xrotation Yrotation Zrotation
			JOINT LeftLeg
			{
				OFFSET 0.708757 -12.982077 0.567790
				CHANNELS 3 Xrotation Yrotation Zrotation
				JOINT LeftFoot
				{
					OFFSET -0.708756 -10.717838 -2.184338
					CHANNELS 3 Xrotation Yrotation Zrotation
					JOINT LeftToeBase
					{
						OFFSET 0.108149 -7.191104 7.560241
						CHANNELS 3 Xrotation Yrotation Zrotation
						JOINT LeftToe_End
						{
							OFFSET 0.070230 0.081724 4.490308
							CHANNELS 3 Xrotation Yrotation Zrotation
							End Site
							{
								OFFSET 0 0 0
							}
						}
					}
				}
			}
		}
	}
	JOINT RightUpLeg_virtual
	{
		OFFSET 0.000000 0.000000 0.000000
		CHANNELS 3 Xrotation Yrotation Zrotation
		JOINT RightUpLeg
		{
			OFFSET -10.205400 -3.823500 0.005500
			CHANNELS 3 Xrotation Yrotation Zrotation
			JOINT RightLeg
			{
				OFFSET -0.708756 -12.982134 0.610632
				CHANNELS 3 Xrotation Yrotation Zrotation
				JOINT RightFoot
				{
					OFFSET 0.708754 -10.717769 -1.945823
					CHANNELS 3 Xrotation Yrotation Zrotation
					JOINT RightToeBase
					{
						OFFSET -0.108140 -7.191069 7.372968
						CHANNELS 3 Xrotation Yrotation Zrotation
						JOINT RightToe_End
						{
							OFFSET -0.070227 0.081735 4.479403
							CHANNELS 3 Xrotation Yrotation Zrotation
							End Site
							{
								OFFSET 0 0 0
							}
						}
					}
				}
			}
		}
	}
	JOINT Spine_virtual
	{
		OFFSET 0.000000 0.000000 0.000000
		CHANNELS 3 Xrotation Yrotation Zrotation
		JOINT Spine
		{
			OFFSET 0.000000 6.876099 0.125700
			CHANNELS 3 Xrotation Yrotation Zrotation
			JOINT Spine1
			{
				OFFSET 0.000000 5.730043 0.104720
				CHANNELS 3 Xrotation Yrotation Zrotation
				JOINT Spine1_split
				{
					OFFSET 0.000000 5.730043 0.104720
					CHANNELS 3 Xrotation Yrotation Zrotation
					JOINT Spine2
					{
						OFFSET 0.000000 5.730043 0.104720
						CHANNELS 3 Xrotation Yrotation Zrotation
						JOINT Neck_virtual
						{
							OFFSET 0.000000 0.000000 0.000000
							CHANNELS 3 Xrotation Yrotation Zrotation
							JOINT Neck
							{
								OFFSET 0.000000 10.314075 0.188496
								CHANNELS 3 Xrotation Yrotation Zrotation
								JOINT Head
								{
									OFFSET 0.000000 7.643700 -2.377400
									CHANNELS 3 Xrotation Yrotation Zrotation
									JOINT HeadTop_End
									{
										OFFSET 0.000000 43.788605 -13.619600
										CHANNELS 3 Xrotation Yrotation Zrotation
										End Site
										{
											OFFSET 0 0 0
										}
									}
								}
							}
						}
						JOINT LeftShoulder_virtual
						{
							OFFSET 0.000000 0.000000 0.000000
							CHANNELS 3 Xrotation Yrotation Zrotation
							JOINT LeftShoulder
							{
								OFFSET 2.196100 4.412489 0.087492
								CHANNELS 3 Xrotation Yrotation Zrotation
								JOINT LeftShoulder_split
								{
									OFFSET 2.196100 4.412489 0.087492
									CHANNELS 3 Xrotation Yrotation Zrotation
									JOINT LeftArm
									{
										OFFSET 8.771219 -2.981674 -0.026999
										CHANNELS 3 Xrotation Yrotation Zrotation
										JOINT LeftForeArm
										{
											OFFSET 8.512804 0.000000 -0.000000
											CHANNELS 3 Xrotation Yrotation Zrotation
											JOINT LeftHand
											{
												OFFSET 18.484802 0.000000 -0.000000
												CHANNELS 3 Xrotation Yrotation Zrotation
												End Site
												{
													OFFSET 0 0 0
												}
											}
										}
									}
								}
							}
						}
						JOINT RightShoulder_virtual
						{
							OFFSET 0.000000 0.000000 0.000000
							CHANNELS 3 Xrotation Yrotation Zrotation
							JOINT RightShoulder
							{
								OFFSET -2.196100 4.412496 0.070690
								CHANNELS 3 Xrotation Yrotation Zrotation
								JOINT RightShoulder_split
								{
									OFFSET -2.196100 4.412496 0.070690
									CHANNELS 3 Xrotation Yrotation Zrotation
									JOINT RightArm
									{
										OFFSET -8.771282 -2.981682 -0.094208
										CHANNELS 3 Xrotation Yrotation Zrotation
										JOINT RightForeArm
										{
											OFFSET -8.494598 0.000000 0.000000
											CHANNELS 3 Xrotation Yrotation Zrotation
											JOINT RightHand
											{
												OFFSET -18.483803 0.000000 0.000001
												CHANNELS 3 Xrotation Yrotation Zrotation
												End Site
												{
													OFFSET 0 0 0
												}
											}
										}
									}
								}
							}
						}
					}
				}
			}
		}
	}
}
MOTION
Frames: 7
Frame Time: 0.03333333
0.418497 26.933025 -1.039814 0.000000 0.000000 0.000000 -5.482744 -49.943077 -0.433666 -35.919763 4.934174 26.612859 62.041798 -8.953029 4.667052 -23.647800 -6.200301 -15.732419 -8.361997 -0.162216 -1.221383 0.000000 0.000000 0.000000 -6.521526 -47.745488 0.232530 -9.302969 -12.133876 -37.497298 57.465325 3.765943 -5.563672 -41.872242 -18.512123 27.731084 2.029503 1.253679 -1.858285 0.000000 0.000000 0.000000 -5.190036 -48.027025 0.016389 9.650589 7.144043 -1.308853 2.329653 1.813602 -1.354549 0.091419 -1.014709 0.728383 0.000000 0.000000 0.000000 2.286553 1.453016 -0.818813 -0.670508 13.621112 4.311886 8.309145 22.049746 -6.756274 0.000000 0.000000 0.000000 3.442376 1.047870 -0.953093 1.482211 3.712560 -5.844180 -3.507489 -1.416022 -1.634726 -51.809929 3.795497 -50.023028 179.077779 -71.272327 -178.699988 0.000000 0.000000 0.000000 3.361424 1.460957 -0.605145 4.100349 11.257896 -6.095112 -2.268241 -2.575930 -0.324136 -48.855974 29.348872 86.406613 178.560898 65.293316 -178.816497 0.000000 0.000000 0.000000 
0.524562 26.840694 -1.014624 0.000000 0.000000 0.000000 -5.998723 -50.364753 -0.641672 -35.982994 4.044605 26.375272 62.818698 -8.120854 4.317461 -23.379014 -5.629010 -15.141964 -8.312100 -0.035835 -1.926952 0.000000 0.000000 0.000000 -6.520278 -47.574023 0.258413 -9.572998 -12.093068 -37.972416 58.197617 4.246885 -5.600991 -42.433643 -18.168506 27.911285 2.639959 1.288600 -1.843283 0.000000 0.000000 0.000000 -5.592404 -47.908231 -0.109892 9.905460 7.157969 -1.310493 2.471776 1.687984 -1.225753 0.502163 -1.412284 0.957667 0.000000 0.000000 0.000000 2.259561 1.316348 -0.678537 -0.507307 13.540807 4.125792 8.761036 21.967227 -6.624281 0.000000 0.000000 0.000000 3.391657 0.969511 -0.908768 1.488050 3.861556 -6.258371 -3.319288 -1.357698 -1.385771 -51.652749 3.887456 -50.132373 179.299965 -71.608728 -178.580418 0.000000 0.000000 0.000000 3.421072 1.376857 -0.554682 4.218753 11.650866 -6.086626 -2.586267 -3.205233 -0.423550 -50.475969 28.576533 86.566589 178.901697 65.370497 -179.334389 0.000000 0.000000 0.000000 
0.590224 26.690670 -0.939178 0.000000 0.000000 0.000000 -6.721490 -51.100094 -0.980005 -36.801630 2.673368 26.300183 64.810094 -7.052323 3.812590 -21.940354 -5.074888 -14.667408 -8.261066 0.001174 -2.151085 0.000000 0.000000 0.000000 -6.893538 -47.445605 -0.027293 -10.199757 -12.138602 -38.433683 59.522100 4.720061 -5.684197 -42.798402 -17.805460 28.203308 2.515245 1.331533 -1.523290 0.000000 0.000000 0.000000 -6.446744 -48.034589 -0.552799 10.211557 7.139490 -1.234720 2.555134 1.488039 -1.027454 0.868076 -1.402031 1.024678 0.000000 0.000000 0.000000 2.210424 1.105738 -0.539754 -0.580637 13.388352 3.847776 9.243868 21.795130 -6.329483 0.000000 0.000000 0.000000 3.353581 0.798282 -0.792357 1.505170 3.944653 -6.872568 -2.970035 -1.423609 -1.086863 -51.530813 4.133715 -50.475477 179.658564 -72.571709 -178.327701 0.000000 0.000000 0.000000 3.418849 1.176990 -0.445756 4.215807 11.820060 -6.060085 -3.028474 -3.369492 -0.324707 -51.837639 27.049071 85.910638 179.318297 65.988875 179.941252 0.000000 0.000000 0.000000 
0.658486 26.521389 -0.891537 0.000000 0.000000 0.000000 -7.632356 -51.889316 -1.393324 -38.054597 0.880400 26.235583 67.352939 -6.463038 3.462756 -19.404270 -5.109308 -15.160057 -9.852957 -0.136397 -1.277798 0.000000 0.000000 0.000000 -7.693429 -47.542700 -0.481837 -11.144667 -12.246424 -38.979142 61.224170 5.075489 -5.824334 -43.257610 -17.411052 28.232887 1.934256 1.340346 -0.895873 0.000000 0.000000 0.000000 -7.584751 -48.507262 -1.179349 10.525834 7.134638 -1.102896 2.531878 1.314476 -0.831756 0.983892 -0.947489 0.866337 0.000000 0.000000 0.000000 2.167148 0.907140 -0.453133 -0.886142 13.158595 3.530303 9.601871 21.524829 -5.946045 0.000000 0.000000 0.000000 3.309176 0.625680 -0.602766 1.520343 4.008451 -7.492241 -2.639113 -1.714039 -0.767534 -51.446279 4.320253 -50.945589 -179.968600 -73.451287 -178.068482 0.000000 0.000000 0.000000 3.334021 0.942457 -0.317146 4.094213 11.818413 -6.104214 -3.625189 -2.980203 0.143636 -52.279753 25.316205 84.707009 179.591724 66.867422 179.316563 0.000000 0.000000 0.000000 
0.774369 26.358082 -0.826960 0.000000 0.000000 0.000000 -8.820752 -52.562223 -1.860538 -39.001152 -1.007138 25.960593 69.733650 -6.697871 3.362809 -16.714223 -6.183938 -16.656034 -13.645405 -0.575302 0.595470 0.000000 0.000000 0.000000 -8.905967 -47.972281 -0.974034 -12.404108 -12.279697 -39.701400 63.255420 5.324336 -6.012105 -43.766626 -16.844981 27.941056 1.566457 1.304998 -0.095830 0.000000 0.000000 0.000000 -9.016036 -49.256661 -1.903046 10.845975 7.165522 -0.946542 2.421265 1.229549 -0.684068 0.759024 -0.367447 0.648327 0.000000 0.000000 0.000000 2.167546 0.801304 -0.428579 -1.305317 12.924854 3.230914 9.755155 21.246352 -5.587483 0.000000 0.000000 0.000000 3.259540 0.542281 -0.361501 1.543715 4.115140 -8.056871 -2.177404 -1.937493 -0.545268 -51.410042 4.300150 -51.427663 -179.785851 -73.837337 -178.030725 0.000000 0.000000 0.000000 3.198509 0.742211 -0.232192 3.928818 11.756375 -6.318747 -4.215735 -2.004135 0.664886 -51.720467 23.574944 83.181090 179.617555 67.639964 179.014395 0.000000 0.000000 0.000000 
0.942906 26.219465 -0.733259 0.000000 0.000000 0.000000 -10.175238 -53.010655 -2.339897 -39.555398 -2.621025 25.517756 71.968112 -7.697873 3.418558 -14.673449 -8.136333 -18.892563 -17.552432 -1.188967 2.320680 0.000000 0.000000 0.000000 -10.334460 -48.846935 -1.453729 -14.037836 -12.076575 -40.691067 65.626486 5.563317 -6.183721 -43.813860 -15.984740 27.729605 1.369445 1.251875 0.596589 0.000000 0.000000 0.000000 -10.429485 -50.169314 -2.554222 11.140394 7.249810 -0.745375 2.295112 1.237600 -0.589960 0.403316 0.183437 0.373208 0.000000 0.000000 0.000000 2.240023 0.837417 -0.450594 -1.661564 12.754717 2.922660 9.668415 21.133780 -5.375608 0.000000 0.000000 0.000000 3.210020 0.589959 -0.104012 1.578846 4.216049 -8.551478 -1.754515 -2.148899 -0.317887 -51.354031 4.007475 -51.726095 -179.893003 -73.590862 -178.297171 0.000000 0.000000 0.000000 3.074411 0.642402 -0.220115 3.776073 11.774725 -6.757238 -4.607356 -0.822574 1.239069 -50.491723 22.333783 81.741068 179.333379 67.848777 179.149127 0.000000 0.000000 0.000000 
1.125877 26.097309 -0.573812 0.000000 0.000000 0.000000 -11.464961 -53.354139 -2.855870 -39.673407 -3.830425 25.240513 74.088688 -9.139501 3.441105 -13.473304 -10.297826 -21.652934 -19.670373 -1.619935 3.079754 0.000000 0.000000 0.000000 -11.796390 -50.086686 -2.008290 -15.859824 -11.476278 -41.888266 67.827699 6.028675 -6.412986 -43.021412 -14.966772 28.362692 0.942371 1.180304 0.908813 0.000000 0.000000 0.000000 -11.837823 -51.191202 -3.213291 11.411368 7.233325 -0.490561 2.220842 1.302523 -0.564566 0.198354 0.220441 0.201822 0.000000 0.000000 0.000000 2.351531 0.977149 -0.488373 -1.799809 12.734998 2.637782 9.418939 21.237355 -5.419432 0.000000 0.000000 0.000000 3.219462 0.727504 0.083640 1.627217 4.214911 -8.889501 -1.500860 -2.353495 -0.066983 -51.122658 3.633110 -51.623051 179.820248 -72.938545 -178.712883 0.000000 0.000000 0.000000 3.045011 0.659766 -0.274326 3.685646 11.991787 -7.311673 -4.680567 -0.000174 1.887928 -49.290730 21.747532 80.310587 179.124976 67.154447 179.341247 0.000000 0.000000 0.000000 
